<svg width="200" height="200" viewBox="0 0 200 200" fill="none" xmlns="http://www.w3.org/2000/svg">
  <rect width="200" height="200" rx="30" fill="#111827"/>
  <path d="M140 50H60C49 50 40 59 40 70V110C40 121 49 130 60 130H63V155L90 130H140C151 130 160 121 160 110V70C160 59 151 50 140 50Z" fill="#F9FAFB"/>
  <path d="M105 80C105 83.3137 102.314 86 99 86C95.6863 86 93 83.3137 93 80C93 76.6863 95.6863 74 99 74C102.314 74 105 76.6863 105 80Z" fill="#111827"/>
  <path d="M124 80C124 83.3137 121.314 86 118 86C114.686 86 112 83.3137 112 80C112 76.6863 114.686 74 118 74C121.314 74 124 76.6863 124 80Z" fill="#111827"/>
  <path d="M86 80C86 83.3137 83.3137 86 80 86C76.6863 86 74 83.3137 74 80C74 76.6863 76.6863 74 80 74C83.3137 74 86 76.6863 86 80Z" fill="#111827"/>
  <path d="M160 70C160 59 151 50 140 50H60C49 50 40 59 40 70V110C40 121 49 130 60 130H140C151 130 160 121 160 110V70Z" stroke="#D1D5DB" stroke-width="2"/>
  <text x="50%" y="185" text-anchor="middle" fill="#F9FAFB" font-family="Arial, sans-serif" font-size="20" font-weight="bold">InkChat</text>
</svg>
